<svg width="340" height="126" viewBox="0 0 340 126" fill="none" xmlns="http://www.w3.org/2000/svg">
<g style="mix-blend-mode:multiply">
<rect x="0.5" y="0.5" width="339" height="125" fill="white"/>
<g clip-path="url(#clip0_180_500)">
<path d="M33.5 66.9956V44.8979H38.5917V66.9956H33.5Z" fill="#231F20"/>
<path d="M49.0254 66.9956V47.7349H52.0554L65.4875 59.0833C65.9405 59.4615 66.3466 59.8083 66.6902 60.1551C67.0338 60.5018 67.3618 60.8328 67.6429 61.1796C67.5648 60.092 67.518 59.3355 67.5024 58.8784C67.4711 58.4213 67.4711 58.0903 67.4711 57.8381V47.7349H71.4695V66.9956H68.4395L54.4295 55.0956C54.0859 54.7961 53.8047 54.5124 53.5392 54.276C53.2893 54.0396 53.055 53.7874 52.8364 53.5352C52.8988 54.1341 52.9457 54.6858 52.9769 55.2217C53.0082 55.7418 53.0238 56.2147 53.0238 56.5929V66.9956H49.0254Z" fill="#231F20"/>
<path d="M81.1836 66.9955V47.7349H84.2136L97.6457 59.0832C98.0987 59.4615 98.5048 59.8083 98.8484 60.155C99.192 60.5018 99.52 60.8328 99.8011 61.1795C99.723 60.092 99.6762 59.3354 99.6606 58.8783C99.6293 58.4213 99.6293 58.0903 99.6293 57.8381V47.7349H103.628V66.9955H100.598L86.5877 55.0956C86.2441 54.7961 85.9629 54.5124 85.6974 54.276C85.4475 54.0395 85.2132 53.7874 84.9946 53.5352C85.057 54.1341 85.1039 54.6858 85.1351 55.2217C85.1664 55.7418 85.182 56.2146 85.182 56.5929V66.9955H81.1836Z" fill="#231F20"/>
<path d="M112.953 52.29C112.953 50.5405 113.281 49.3426 113.921 48.6964C114.577 48.0502 115.827 47.7349 117.67 47.7349H131.727C133.585 47.7349 134.835 48.0502 135.475 48.6964C136.131 49.3426 136.444 50.5405 136.444 52.29V62.4405C136.444 64.2058 136.116 65.4037 135.475 66.0341C134.819 66.6803 133.57 66.9956 131.727 66.9956H117.67C115.811 66.9956 114.562 66.6803 113.921 66.0341C113.266 65.4037 112.953 64.19 112.953 62.4405V52.29ZM117.389 63.3704H132.039V51.1867H117.389V63.3862V63.3704Z" fill="#231F20"/>
<path d="M152.28 66.9956L141.253 47.7349H146.329L154.06 61.6524L161.432 47.7349H165.852L155.357 66.9956H152.28Z" fill="#231F20"/>
<path d="M166.057 66.9956L176.849 47.7349H181.129L192.077 66.9956H187.095L184.799 62.7872H172.695L170.477 66.9956H166.057ZM174.6 59.3039H182.956L178.833 51.4704L174.584 59.3039H174.6Z" fill="#231F20"/>
<path d="M209.133 48.854V67.0113H204.041V48.854H193.998V44.8979H219.238V48.854H209.148H209.133Z" fill="#231F20"/>
<path d="M224.736 66.9955V47.7349H244.275V51.0133H229.172V55.3162H237.981V58.5946H229.172V63.3704H244.447V66.9955H224.721H224.736Z" fill="#231F20"/>
<path d="M268.671 51.1868H256.692V63.3863H268.671V59.241L273.107 60.1709V62.4564C273.107 64.2216 272.779 65.4195 272.123 66.05C271.467 66.6962 270.217 67.0114 268.374 67.0114H256.973C255.114 67.0114 253.865 66.6962 253.224 66.05C252.568 65.4195 252.256 64.2059 252.256 62.4564V52.3059C252.256 50.5564 252.584 49.3585 253.224 48.7123C253.88 48.066 255.13 47.7508 256.973 47.7508H268.374C270.217 47.7508 271.467 48.066 272.123 48.7123C272.779 49.3585 273.107 50.5564 273.107 52.3059V54.1342L268.671 54.8435V51.2026V51.1868Z" fill="#231F20"/>
<path d="M282.275 66.9955V47.7349H286.711V55.2059H300.581V47.7349H305.063V66.9955H300.581V58.705H286.711V66.9955H282.275Z" fill="#231F20"/>
<path d="M147.517 81.1022V74.8291H153.873V75.9009H148.969V77.3037H151.843V78.3754H148.969V79.9358H153.936V81.118H147.517V81.1022Z" fill="#231F20"/>
<path d="M156.138 81.1021V75.9639H156.997L161.308 79.3684V75.9639H162.432V81.1021H161.573L157.262 77.6346V81.1021H156.138Z" fill="#231F20"/>
<path d="M169.695 76.9096H165.822V80.1249H169.695V79.0374H167.68V78.1232H170.913V79.8885C170.913 80.3613 170.82 80.6766 170.648 80.8499C170.461 81.0233 170.117 81.1021 169.602 81.1021H165.915C165.4 81.1021 165.056 81.0233 164.869 80.8499C164.682 80.6766 164.604 80.3613 164.604 79.8885V77.1775C164.604 76.7047 164.697 76.3894 164.869 76.216C165.056 76.0427 165.4 75.9639 165.915 75.9639H169.602C170.117 75.9639 170.461 76.0427 170.648 76.216C170.835 76.3894 170.929 76.6889 170.929 77.1145V77.2563L169.711 77.4612V76.9096H169.695Z" fill="#231F20"/>
<path d="M173.038 81.1021V75.9639H174.272V81.1021H173.038Z" fill="#231F20"/>
<path d="M176.536 81.1021V75.9639H177.395L181.706 79.3684V75.9639H182.83V81.1021H181.971L177.661 77.6346V81.1021H176.536Z" fill="#231F20"/>
<path d="M185.096 81.1021V75.9639H190.547V76.878H186.345V77.9971H188.797V78.8797H186.345V80.1407H190.609V81.1021H185.08H185.096Z" fill="#231F20"/>
<path d="M192.421 81.1021V75.9639H197.872V76.878H193.67V77.9971H196.123V78.8797H193.67V80.1407H197.934V81.1021H192.405H192.421Z" fill="#231F20"/>
<path d="M199.729 81.1021V75.9639H204.306C204.727 75.9639 205.024 76.0427 205.212 76.2003C205.399 76.3579 205.493 76.6101 205.493 76.9568V78.1705C205.493 78.5172 205.399 78.7694 205.212 78.927C205.024 79.0846 204.727 79.1634 204.306 79.1634H203.603L206.024 81.1021H204.243L202.104 79.1634H200.932V81.1021H199.714H199.729ZM203.79 76.8465H200.963V78.265H203.79C204.009 78.265 204.15 78.2335 204.228 78.1705C204.306 78.1074 204.353 77.9971 204.353 77.8552V77.2563C204.353 77.0987 204.306 77.0041 204.228 76.9411C204.15 76.878 203.993 76.8465 203.79 76.8465Z" fill="#231F20"/>
<path d="M207.556 81.1021V75.9639H213.007V76.878H208.805V77.9971H211.257V78.8797H208.805V80.1407H213.069V81.1021H207.54H207.556Z" fill="#231F20"/>
<path d="M214.865 81.1021V75.9639H218.286C219.27 75.9639 220.019 76.1845 220.55 76.6258C221.081 77.0672 221.347 77.6976 221.347 78.5172C221.347 79.3841 221.066 80.0303 220.504 80.4559C219.941 80.8815 219.098 81.1021 217.973 81.1021H214.865ZM216.115 80.1407H217.708C218.582 80.1407 219.192 80.0146 219.535 79.7624C219.879 79.5102 220.051 79.0689 220.051 78.4699C220.051 77.9341 219.91 77.54 219.613 77.2878C219.317 77.0356 218.879 76.8938 218.286 76.8938H216.099V80.1564L216.115 80.1407Z" fill="#231F20"/>
<path d="M230.906 76.878V81.0864H229.672V76.878H227.22V75.9639H233.374V76.878H230.906Z" fill="#231F20"/>
<path d="M234.841 77.1775C234.841 76.7046 234.935 76.3894 235.106 76.216C235.294 76.0427 235.637 75.9639 236.153 75.9639H240.089C240.62 75.9639 240.963 76.0427 241.151 76.216C241.323 76.3894 241.416 76.7046 241.416 77.1775V79.8885C241.416 80.3613 241.323 80.6766 241.151 80.8499C240.963 81.0233 240.62 81.1021 240.104 81.1021H236.168C235.653 81.1021 235.294 81.0233 235.122 80.8499C234.935 80.6766 234.856 80.3613 234.856 79.8885V77.1775H234.841ZM236.075 80.1249H240.167V76.9095H236.075V80.1249Z" fill="#231F20"/>
<path d="M248.227 81.1021V75.9639H251.647C252.631 75.9639 253.381 76.1845 253.912 76.6258C254.443 77.0672 254.708 77.6976 254.708 78.5172C254.708 79.3841 254.427 80.0303 253.865 80.4559C253.303 80.8815 252.459 81.1021 251.335 81.1021H248.227ZM249.476 80.1407H251.069C251.944 80.1407 252.553 80.0146 252.897 79.7624C253.24 79.5102 253.412 79.0689 253.412 78.4699C253.412 77.934 253.271 77.54 252.975 77.2878C252.678 77.0356 252.241 76.8938 251.647 76.8938H249.46V80.1564L249.476 80.1407Z" fill="#231F20"/>
<path d="M256.458 77.1775C256.458 76.7046 256.552 76.3894 256.724 76.216C256.911 76.0427 257.255 75.9639 257.77 75.9639H261.706C262.237 75.9639 262.581 76.0427 262.752 76.216C262.924 76.3894 263.018 76.7046 263.018 77.1775V79.8885C263.018 80.3613 262.924 80.6766 262.737 80.8499C262.549 81.0233 262.206 81.1021 261.69 81.1021H257.754C257.239 81.1021 256.88 81.0233 256.708 80.8499C256.52 80.6766 256.442 80.3613 256.442 79.8885V77.1775H256.458ZM257.692 80.1249H261.8V76.9095H257.692V80.1249Z" fill="#231F20"/>
<path d="M270.28 81.1021V74.829H271.452L274.372 78.6118L277.231 74.829H278.386V81.1021H277.043V77.2248C277.043 77.2248 277.043 77.0514 277.043 76.9411C277.043 76.8308 277.059 76.7047 277.074 76.5628C276.996 76.7204 276.934 76.8623 276.871 76.9568C276.809 77.0672 276.762 77.146 276.715 77.209L274.388 80.3456H274.107L271.764 77.209C271.67 77.0829 271.608 76.9726 271.545 76.878C271.483 76.7835 271.436 76.6731 271.389 76.5786C271.389 76.7047 271.405 76.8308 271.42 76.9411C271.42 77.0514 271.42 77.146 271.42 77.2563V81.1337H270.249L270.28 81.1021Z" fill="#231F20"/>
<path d="M280.854 77.1775C280.854 76.7046 280.948 76.3894 281.12 76.216C281.307 76.0427 281.651 75.9639 282.166 75.9639H286.102C286.633 75.9639 286.977 76.0427 287.164 76.216C287.336 76.3894 287.43 76.7046 287.43 77.1775V79.8885C287.43 80.3613 287.336 80.6766 287.164 80.8499C286.977 81.0233 286.633 81.1021 286.118 81.1021H282.182C281.667 81.1021 281.307 81.0233 281.136 80.8499C280.948 80.6766 280.87 80.3613 280.87 79.8885V77.1775H280.854ZM282.088 80.1249H286.18V76.9095H282.088V80.1249Z" fill="#231F20"/>
<path d="M289.568 81.1021V75.9639H294.145C294.566 75.9639 294.863 76.0427 295.051 76.2003C295.238 76.3579 295.332 76.6101 295.332 76.9568V78.1705C295.332 78.5172 295.238 78.7694 295.051 78.927C294.863 79.0846 294.566 79.1634 294.145 79.1634H293.442L295.863 81.1021H294.082L291.942 79.1634H290.771V81.1021H289.553H289.568ZM293.629 76.8465H290.802V78.265H293.629C293.848 78.265 293.988 78.2335 294.067 78.1705C294.145 78.1074 294.192 77.9971 294.192 77.8552V77.2563C294.192 77.0987 294.145 77.0041 294.067 76.9411C293.988 76.878 293.832 76.8465 293.629 76.8465Z" fill="#231F20"/>
<path d="M297.395 81.1021V75.9639H302.845V76.878H298.644V77.9971H301.096V78.8797H298.644V80.1407H302.908V81.1021H297.379H297.395Z" fill="#231F20"/>
<path d="M306 79.2265H306.219C306.328 79.2265 306.407 79.258 306.438 79.321C306.485 79.3841 306.5 79.4944 306.5 79.6678V80.645C306.5 80.8341 306.469 80.9602 306.438 81.0075C306.391 81.0706 306.25 81.0863 306 81.0863H304.923C304.813 81.0863 304.735 81.0548 304.704 80.9918C304.657 80.9287 304.642 80.8026 304.642 80.6292V79.652C304.642 79.4629 304.657 79.3526 304.704 79.2895C304.751 79.2265 304.891 79.2107 305.141 79.2107H306V79.2265Z" fill="#231F20"/>
</g>
<rect x="0.5" y="0.5" width="339" height="125" stroke="black"/>
</g>
<defs>
<clipPath id="clip0_180_500">
<rect width="273" height="36.2043" fill="white" transform="translate(33.5 44.8979)"/>
</clipPath>
</defs>
</svg>
