<svg width="10" height="15" viewBox="0 0 10 15" fill="none" xmlns="http://www.w3.org/2000/svg">
<g id="Download Buttons">
<g id="Group 46">
<g id="Group 45">
<g id="Group 33">
<line id="Line 8" x1="10" y1="13.7143" x2="-6.24448e-08" y2="13.7143" stroke="#CA992C" stroke-width="1.42857"/>
</g>
</g>
<path id="Arrow 2" d="M5.65 1L5.65 0.35L4.35 0.35L4.35 1L5.65 1ZM4.54038 11.4596C4.79422 11.7135 5.20578 11.7135 5.45962 11.4596L9.59619 7.32304C9.85003 7.0692 9.85003 6.65765 9.59619 6.40381C9.34235 6.14997 8.9308 6.14997 8.67696 6.40381L5 10.0808L1.32305 6.40381C1.0692 6.14997 0.657647 6.14997 0.403806 6.40381C0.149966 6.65765 0.149966 7.0692 0.403806 7.32305L4.54038 11.4596ZM4.35 1L4.35 11L5.65 11L5.65 1L4.35 1Z" fill="#CA992C"/>
</g>
</g>
</svg>
