<svg width="26" height="24" viewBox="0 0 26 24" fill="none" xmlns="http://www.w3.org/2000/svg">
<path d="M20.4582 5.81218C20.2816 5.36169 20.0747 5.04512 19.7398 4.71029C19.405 4.37546 19.0823 4.16848 18.6379 3.99193C18.297 3.858 17.7917 3.7058 16.8542 3.66319C15.8436 3.61449 15.5393 3.6084 12.9763 3.6084C10.4133 3.6084 10.1089 3.62057 9.09835 3.66319C8.16083 3.7058 7.65554 3.86409 7.31462 3.99193C6.86413 4.16848 6.54756 4.37546 6.21273 4.71029C5.8779 5.04512 5.67092 5.36777 5.49437 5.81218C5.36044 6.1531 5.20824 6.65839 5.16563 7.59591C5.11693 8.60649 5.11084 8.91088 5.11084 11.4738C5.11084 14.0368 5.12302 14.3412 5.16563 15.3518C5.20824 16.2893 5.36653 16.7946 5.49437 17.1355C5.67092 17.586 5.8779 17.9026 6.21273 18.2374C6.54756 18.5722 6.87021 18.7792 7.31462 18.9558C7.65554 19.0897 8.16083 19.2419 9.09835 19.2845C10.1089 19.3332 10.4133 19.3393 12.9763 19.3393C15.5393 19.3393 15.8436 19.3271 16.8542 19.2845C17.7917 19.2419 18.297 19.0836 18.6379 18.9558C19.0884 18.7792 19.405 18.5722 19.7398 18.2374C20.0747 17.9026 20.2816 17.5799 20.4582 17.1355C20.5921 16.7946 20.7443 16.2893 20.7869 15.3518C20.8356 14.3412 20.8417 14.0368 20.8417 11.4738C20.8417 8.91088 20.8295 8.60649 20.7869 7.59591C20.7443 6.65839 20.586 6.1531 20.4582 5.81218V5.81218ZM12.9702 16.405C10.2489 16.405 8.03907 14.1951 8.03907 11.4738C8.03907 8.75259 10.2489 6.54272 12.9702 6.54272C15.6914 6.54272 17.9013 8.75259 17.9013 11.4738C17.9013 14.1951 15.6914 16.405 12.9702 16.405ZM18.0961 7.49851C17.4569 7.49851 16.9455 6.98104 16.9455 6.34791C16.9455 5.71478 17.463 5.19732 18.0961 5.19732C18.7293 5.19732 19.2467 5.71478 19.2467 6.34791C19.2467 6.98104 18.7293 7.49851 18.0961 7.49851Z" fill="#EFEFEF"/>
<path d="M13.7112 14.5969C15.4325 14.1907 16.4985 12.466 16.0922 10.7448C15.686 9.02355 13.9613 7.95754 12.2401 8.36379C10.5189 8.77004 9.45286 10.4947 9.85911 12.2159C10.2654 13.9371 11.99 15.0031 13.7112 14.5969Z" fill="#EFEFEF"/>
<path d="M7.15209 -1C3.47608 -1 0.496094 1.97999 0.496094 5.656V17.304C0.496094 20.98 3.47609 23.96 7.15209 23.96H18.8001C22.4761 23.96 25.4561 20.98 25.4561 17.304V5.65599C25.4561 1.97999 22.4761 -1 18.8001 -1H7.15209ZM22.5218 15.4371C22.4731 16.4598 22.3148 17.1599 22.0774 17.7687C21.8338 18.4018 21.5051 18.9376 20.9694 19.4672C20.4337 20.0029 19.8979 20.3317 19.2709 20.5752C18.6621 20.8126 17.962 20.977 16.9393 21.0196C15.9165 21.0683 15.5878 21.0744 12.9822 21.0744C10.3766 21.0744 10.0479 21.0622 9.02511 21.0196C8.00236 20.9709 7.30226 20.8126 6.69348 20.5752C6.06035 20.3317 5.52462 20.0029 4.99498 19.4672C4.45925 18.9315 4.13051 18.3957 3.887 17.7687C3.64958 17.1599 3.48521 16.4598 3.44259 15.4371C3.39389 14.4143 3.3878 14.0856 3.3878 11.48C3.3878 8.87442 3.39998 8.54568 3.44259 7.52293C3.49129 6.50018 3.64958 5.80008 3.887 5.1913C4.13051 4.55817 4.45925 4.02244 4.99498 3.4928C5.53071 2.95707 6.06644 2.62833 6.69348 2.38482C7.30226 2.1474 8.00236 1.98302 9.02511 1.94041C10.0479 1.89171 10.3766 1.88562 12.9822 1.88562C15.5878 1.88562 15.9165 1.8978 16.9393 1.94041C17.962 1.98911 18.6621 2.1474 19.2709 2.38482C19.904 2.62833 20.4397 2.95707 20.9694 3.4928C21.5051 4.02853 21.8338 4.56425 22.0774 5.1913C22.3148 5.80008 22.4792 6.50018 22.5218 7.52293C22.5705 8.54568 22.5766 8.87442 22.5766 11.48C22.5766 14.0856 22.5644 14.4143 22.5218 15.4371Z" fill="#EFEFEF"/>
</svg>
