<svg width="26" height="24" viewBox="0 0 26 24" fill="none" xmlns="http://www.w3.org/2000/svg">
<path d="M7.60033 -1C3.92432 -1 0.944336 1.97999 0.944336 5.656V17.304C0.944336 20.98 3.92433 23.96 7.60034 23.96H19.2483C22.9244 23.96 25.9043 20.98 25.9043 17.304V5.65599C25.9043 1.97999 22.9243 -1 19.2483 -1H7.60033ZM8.6515 19.6437C7.67136 19.6316 6.68514 19.6377 5.705 19.6437C5.54672 19.6437 5.49802 19.6072 5.49802 19.4428C5.49802 15.9424 5.49802 12.4358 5.49802 8.9353C5.49802 8.78919 5.53455 8.74049 5.68674 8.74049C6.68514 8.74658 7.68354 8.74658 8.67586 8.74049C8.86458 8.74049 8.89502 8.81354 8.89502 8.97791C8.89502 10.719 8.89502 12.4662 8.89502 14.2073C8.89502 15.9484 8.89502 17.6652 8.89502 19.3941C8.89502 19.589 8.84631 19.6437 8.6515 19.6437ZM7.20261 7.2368C6.13115 7.2368 5.24233 6.35407 5.24233 5.28261C5.24233 4.19899 6.12506 3.31017 7.20869 3.31017C8.28015 3.31017 9.16897 4.1929 9.16897 5.26435C9.16897 6.34798 8.28624 7.2368 7.20261 7.2368ZM21.6124 19.4185C21.6124 19.595 21.5637 19.6437 21.3872 19.6437C20.401 19.6377 19.4208 19.6377 18.4346 19.6437C18.2641 19.6437 18.2215 19.589 18.2276 19.4307C18.2276 17.6165 18.2337 15.7963 18.2276 13.9821C18.2276 13.5255 18.1972 13.075 18.0693 12.6306C17.8319 11.8148 17.2536 11.4009 16.3952 11.4435C15.2263 11.5044 14.6236 12.0827 14.4714 13.2698C14.4349 13.5559 14.4167 13.836 14.4167 14.1221C14.4167 15.8876 14.4167 17.653 14.4167 19.4185C14.4167 19.595 14.374 19.6437 14.1914 19.6437C13.1991 19.6377 12.2129 19.6377 11.2206 19.6437C11.0623 19.6437 11.0136 19.6011 11.0136 19.4428C11.0136 15.9484 11.0136 12.448 11.0136 8.95356C11.0136 8.7831 11.0684 8.74049 11.2327 8.74049C12.1703 8.74658 13.1139 8.74658 14.0514 8.74049C14.2218 8.74049 14.2705 8.79528 14.2645 8.95965C14.2523 9.37971 14.2645 9.79368 14.2645 10.2137C14.4897 9.95805 14.6784 9.70236 14.9098 9.4832C15.6281 8.80745 16.4743 8.46654 17.4606 8.47262C18.0024 8.47262 18.5442 8.51524 19.0677 8.66743C20.267 9.01444 20.961 9.84238 21.2959 11.0112C21.5455 11.8879 21.5942 12.7889 21.5942 13.696C21.5942 15.6014 21.5942 17.513 21.5942 19.4185H21.6124Z" fill="#EFEFEF"/>
</svg>
