<svg width="451" height="115" viewBox="0 0 451 115" fill="none" xmlns="http://www.w3.org/2000/svg">
<path d="M393.356 147H0V-5H451L393.356 147Z" fill="#CA992C"/>
<g clip-path="url(#clip0_1013_1458)">
<g clip-path="url(#clip1_1013_1458)">
<path d="M56 68.5113V44.8616H61.4493V68.5113H56Z" fill="#231F20"/>
<path d="M72.6157 68.5113V47.8979H75.8586L90.2341 60.0433C90.7188 60.4482 91.1534 60.8193 91.5212 61.1904C91.8889 61.5615 92.24 61.9157 92.5409 62.2868C92.4573 61.1229 92.4071 60.3132 92.3904 59.824C92.357 59.3348 92.357 58.9806 92.357 58.7107V47.8979H96.6362V68.5113H93.3934L78.3994 55.7756C78.0316 55.4551 77.7307 55.1514 77.4466 54.8984C77.1791 54.6454 76.9284 54.3755 76.6944 54.1056C76.7612 54.7466 76.8114 55.337 76.8448 55.9105C76.8782 56.4672 76.8949 56.9732 76.8949 57.3781V68.5113H72.6157Z" fill="#231F20"/>
<path d="M107.033 68.5113V47.8979H110.276L124.651 60.0433C125.136 60.4482 125.57 60.8193 125.938 61.1904C126.306 61.5615 126.657 61.9157 126.958 62.2868C126.874 61.1229 126.824 60.3132 126.807 59.824C126.774 59.3348 126.774 58.9806 126.774 58.7107V47.8979H131.053V68.5113H127.81L112.816 55.7756C112.449 55.4551 112.148 55.1514 111.864 54.8984C111.596 54.6454 111.345 54.3755 111.111 54.1056C111.178 54.7466 111.228 55.337 111.262 55.9105C111.295 56.4672 111.312 56.9732 111.312 57.3781V68.5113H107.033Z" fill="#231F20"/>
<path d="M141.033 52.773C141.033 50.9006 141.384 49.6185 142.07 48.9269C142.772 48.2353 144.109 47.8979 146.081 47.8979H161.125C163.115 47.8979 164.452 48.2353 165.137 48.9269C165.839 49.6185 166.174 50.9006 166.174 52.773V63.6363C166.174 65.5256 165.823 66.8076 165.137 67.4823C164.435 68.174 163.098 68.5113 161.125 68.5113H146.081C144.092 68.5113 142.755 68.174 142.07 67.4823C141.368 66.8076 141.033 65.5087 141.033 63.6363V52.773ZM145.78 64.6316H161.46V51.5922H145.78V64.6484V64.6316Z" fill="#231F20"/>
<path d="M183.122 68.5113L171.321 47.8979H176.753L185.028 62.7929L192.918 47.8979H197.648L186.415 68.5113H183.122Z" fill="#231F20"/>
<path d="M197.867 68.5113L209.417 47.8979H213.997L225.715 68.5113H220.383L217.926 64.0074H204.971L202.597 68.5113H197.867ZM207.01 60.2795H215.953L211.54 51.8958L206.993 60.2795H207.01Z" fill="#231F20"/>
<path d="M243.968 49.0956V68.5282H238.519V49.0956H227.771V44.8616H254.783V49.0956H243.985H243.968Z" fill="#231F20"/>
<path d="M260.668 68.5113V47.8979H281.579V51.4066H265.415V56.0117H274.843V59.5204H265.415V64.6316H281.763V68.5113H260.651H260.668Z" fill="#231F20"/>
<path d="M307.688 51.5926H294.867V64.6489H307.688V60.2125L312.436 61.2077V63.6537C312.436 65.5429 312.085 66.8249 311.383 67.4997C310.68 68.1913 309.343 68.5287 307.371 68.5287H295.168C293.179 68.5287 291.842 68.1913 291.156 67.4997C290.454 66.8249 290.12 65.5261 290.12 63.6537V52.7903C290.12 50.9179 290.471 49.6359 291.156 48.9443C291.859 48.2527 293.196 47.9153 295.168 47.9153H307.371C309.343 47.9153 310.68 48.2527 311.383 48.9443C312.085 49.6359 312.436 50.9179 312.436 52.7903V54.7471L307.688 55.5061V51.6095V51.5926Z" fill="#231F20"/>
<path d="M322.248 68.5113V47.8979H326.995V55.8936H341.838V47.8979H346.636V68.5113H341.838V59.6385H326.995V68.5113H322.248Z" fill="#231F20"/>
</g>
</g>
<defs>
<clipPath id="clip0_1013_1458">
<rect width="297" height="24" fill="white" transform="translate(56 45)"/>
</clipPath>
<clipPath id="clip1_1013_1458">
<rect width="292.174" height="38.7471" fill="white" transform="translate(56 44.8616)"/>
</clipPath>
</defs>
</svg>
