<svg width="401" height="112" viewBox="0 0 401 112" fill="none" xmlns="http://www.w3.org/2000/svg">
<path d="M322.395 120H-214V-5H401L322.395 120Z" fill="#CA992C"/>
<g clip-path="url(#clip0_265_418)">
<path d="M35 62.0977V40H40.0917V62.0977H35Z" fill="#231F20"/>
<path d="M50.5254 62.0977V42.8371H53.5554L66.9875 54.1854C67.4405 54.5637 67.8466 54.9105 68.1902 55.2572C68.5338 55.604 68.8618 55.935 69.1429 56.2817C69.0648 55.1942 69.018 54.4376 69.0024 53.9805C68.9711 53.5234 68.9711 53.1924 68.9711 52.9403V42.8371H72.9695V62.0977H69.9395L55.9295 50.1977C55.5859 49.8983 55.3047 49.6146 55.0392 49.3781C54.7893 49.1417 54.555 48.8895 54.3364 48.6374C54.3988 49.2363 54.4457 49.7879 54.4769 50.3238C54.5082 50.844 54.5238 51.3168 54.5238 51.6951V62.0977H50.5254Z" fill="#231F20"/>
<path d="M82.6836 62.0977V42.8371H85.7136L99.1457 54.1854C99.5987 54.5637 100.005 54.9105 100.348 55.2572C100.692 55.604 101.02 55.935 101.301 56.2817C101.223 55.1942 101.176 54.4376 101.161 53.9805C101.129 53.5234 101.129 53.1924 101.129 52.9403V42.8371H105.128V62.0977H102.098L88.0877 50.1977C87.7441 49.8983 87.4629 49.6146 87.1974 49.3781C86.9475 49.1417 86.7132 48.8895 86.4946 48.6374C86.557 49.2363 86.6039 49.7879 86.6351 50.3238C86.6664 50.844 86.682 51.3168 86.682 51.6951V62.0977H82.6836Z" fill="#231F20"/>
<path d="M114.453 47.3922C114.453 45.6427 114.781 44.4448 115.421 43.7986C116.077 43.1523 117.327 42.8371 119.17 42.8371H133.227C135.085 42.8371 136.335 43.1523 136.975 43.7986C137.631 44.4448 137.944 45.6427 137.944 47.3922V57.5426C137.944 59.3079 137.616 60.5058 136.975 61.1363C136.319 61.7825 135.07 62.0977 133.227 62.0977H119.17C117.311 62.0977 116.062 61.7825 115.421 61.1363C114.766 60.5058 114.453 59.2922 114.453 57.5426V47.3922ZM118.889 58.4726H133.539V46.2889H118.889V58.4883V58.4726Z" fill="#231F20"/>
<path d="M153.78 62.0977L142.753 42.8371H147.829L155.56 56.7546L162.932 42.8371H167.352L156.857 62.0977H153.78Z" fill="#231F20"/>
<path d="M167.557 62.0977L178.349 42.8371H182.629L193.577 62.0977H188.595L186.299 57.8894H174.195L171.977 62.0977H167.557ZM176.1 54.4061H184.456L180.333 46.5726L176.084 54.4061H176.1Z" fill="#231F20"/>
<path d="M210.633 43.9562V62.1135H205.541V43.9562H195.498V40H220.738V43.9562H210.648H210.633Z" fill="#231F20"/>
<path d="M226.236 62.0977V42.8371H245.775V46.1155H230.672V50.4184H239.481V53.6968H230.672V58.4726H245.947V62.0977H226.221H226.236Z" fill="#231F20"/>
<path d="M270.171 46.289H258.192V58.4884H270.171V54.3431L274.607 55.2731V57.5585C274.607 59.3238 274.279 60.5217 273.623 61.1521C272.967 61.7984 271.717 62.1136 269.874 62.1136H258.473C256.614 62.1136 255.365 61.7984 254.724 61.1521C254.068 60.5217 253.756 59.308 253.756 57.5585V47.4081C253.756 45.6585 254.084 44.4606 254.724 43.8144C255.38 43.1682 256.63 42.853 258.473 42.853H269.874C271.717 42.853 272.967 43.1682 273.623 43.8144C274.279 44.4606 274.607 45.6585 274.607 47.4081V49.2364L270.171 49.9457V46.3047V46.289Z" fill="#231F20"/>
<path d="M283.775 62.0977V42.8371H288.211V50.3081H302.081V42.8371H306.563V62.0977H302.081V53.8071H288.211V62.0977H283.775Z" fill="#231F20"/>
<path d="M149.017 76.2043V69.9312H155.373V71.003H150.469V72.4058H153.343V73.4776H150.469V75.038H155.436V76.2201H149.017V76.2043Z" fill="#231F20"/>
<path d="M157.638 76.2043V71.066H158.497L162.808 74.4705V71.066H163.932V76.2043H163.073L158.762 72.7367V76.2043H157.638Z" fill="#231F20"/>
<path d="M171.195 72.0117H167.322V75.2271H171.195V74.1395H169.18V73.2253H172.413V74.9906C172.413 75.4635 172.32 75.7787 172.148 75.9521C171.961 76.1255 171.617 76.2043 171.102 76.2043H167.415C166.9 76.2043 166.556 76.1255 166.369 75.9521C166.182 75.7787 166.104 75.4635 166.104 74.9906V72.2797C166.104 71.8068 166.197 71.4916 166.369 71.3182C166.556 71.1448 166.9 71.066 167.415 71.066H171.102C171.617 71.066 171.961 71.1448 172.148 71.3182C172.335 71.4916 172.429 71.791 172.429 72.2166V72.3585L171.211 72.5634V72.0117H171.195Z" fill="#231F20"/>
<path d="M174.538 76.2043V71.066H175.772V76.2043H174.538Z" fill="#231F20"/>
<path d="M178.036 76.2043V71.066H178.895L183.206 74.4705V71.066H184.33V76.2043H183.471L179.161 72.7367V76.2043H178.036Z" fill="#231F20"/>
<path d="M186.596 76.2043V71.066H192.047V71.9802H187.845V73.0993H190.297V73.9819H187.845V75.2428H192.109V76.2043H186.58H186.596Z" fill="#231F20"/>
<path d="M193.921 76.2043V71.066H199.372V71.9802H195.17V73.0993H197.623V73.9819H195.17V75.2428H199.434V76.2043H193.905H193.921Z" fill="#231F20"/>
<path d="M201.229 76.2043V71.066H205.806C206.227 71.066 206.524 71.1448 206.712 71.3024C206.899 71.4601 206.993 71.7122 206.993 72.059V73.2726C206.993 73.6194 206.899 73.8716 206.712 74.0292C206.524 74.1868 206.227 74.2656 205.806 74.2656H205.103L207.524 76.2043H205.743L203.604 74.2656H202.432V76.2043H201.214H201.229ZM205.29 71.9487H202.463V73.3672H205.29C205.509 73.3672 205.65 73.3357 205.728 73.2726C205.806 73.2096 205.853 73.0993 205.853 72.9574V72.3585C205.853 72.2008 205.806 72.1063 205.728 72.0432C205.65 71.9802 205.493 71.9487 205.29 71.9487Z" fill="#231F20"/>
<path d="M209.056 76.2043V71.066H214.507V71.9802H210.305V73.0993H212.757V73.9819H210.305V75.2428H214.569V76.2043H209.04H209.056Z" fill="#231F20"/>
<path d="M216.365 76.2043V71.066H219.786C220.77 71.066 221.519 71.2867 222.05 71.728C222.581 72.1693 222.847 72.7998 222.847 73.6194C222.847 74.4863 222.566 75.1325 222.004 75.5581C221.441 75.9836 220.598 76.2043 219.473 76.2043H216.365ZM217.615 75.2428H219.208C220.082 75.2428 220.692 75.1167 221.035 74.8645C221.379 74.6124 221.551 74.171 221.551 73.5721C221.551 73.0362 221.41 72.6422 221.113 72.39C220.817 72.1378 220.379 71.9959 219.786 71.9959H217.599V75.2586L217.615 75.2428Z" fill="#231F20"/>
<path d="M232.406 71.9802V76.1885H231.172V71.9802H228.72V71.066H234.874V71.9802H232.406Z" fill="#231F20"/>
<path d="M236.341 72.2797C236.341 71.8068 236.435 71.4916 236.606 71.3182C236.794 71.1448 237.137 71.066 237.653 71.066H241.589C242.12 71.066 242.463 71.1448 242.651 71.3182C242.823 71.4916 242.916 71.8068 242.916 72.2797V74.9906C242.916 75.4635 242.823 75.7787 242.651 75.9521C242.463 76.1255 242.12 76.2043 241.604 76.2043H237.668C237.153 76.2043 236.794 76.1255 236.622 75.9521C236.435 75.7787 236.356 75.4635 236.356 74.9906V72.2797H236.341ZM237.575 75.2271H241.667V72.0117H237.575V75.2271Z" fill="#231F20"/>
<path d="M249.727 76.2043V71.066H253.147C254.131 71.066 254.881 71.2867 255.412 71.728C255.943 72.1693 256.208 72.7998 256.208 73.6194C256.208 74.4863 255.927 75.1325 255.365 75.5581C254.803 75.9836 253.959 76.2043 252.835 76.2043H249.727ZM250.976 75.2428H252.569C253.444 75.2428 254.053 75.1167 254.397 74.8645C254.74 74.6124 254.912 74.171 254.912 73.5721C254.912 73.0362 254.771 72.6422 254.475 72.39C254.178 72.1378 253.741 71.9959 253.147 71.9959H250.96V75.2586L250.976 75.2428Z" fill="#231F20"/>
<path d="M257.958 72.2797C257.958 71.8068 258.052 71.4916 258.224 71.3182C258.411 71.1448 258.755 71.066 259.27 71.066H263.206C263.737 71.066 264.081 71.1448 264.252 71.3182C264.424 71.4916 264.518 71.8068 264.518 72.2797V74.9906C264.518 75.4635 264.424 75.7787 264.237 75.9521C264.049 76.1255 263.706 76.2043 263.19 76.2043H259.254C258.739 76.2043 258.38 76.1255 258.208 75.9521C258.02 75.7787 257.942 75.4635 257.942 74.9906V72.2797H257.958ZM259.192 75.2271H263.3V72.0117H259.192V75.2271Z" fill="#231F20"/>
<path d="M271.78 76.2043V69.9312H272.952L275.872 73.714L278.731 69.9312H279.886V76.2043H278.543V72.3269C278.543 72.3269 278.543 72.1536 278.543 72.0432C278.543 71.9329 278.559 71.8068 278.574 71.665C278.496 71.8226 278.434 71.9644 278.371 72.059C278.309 72.1693 278.262 72.2481 278.215 72.3112L275.888 75.4477H275.607L273.264 72.3112C273.17 72.1851 273.108 72.0748 273.045 71.9802C272.983 71.8856 272.936 71.7753 272.889 71.6807C272.889 71.8068 272.905 71.9329 272.92 72.0432C272.92 72.1536 272.92 72.2481 272.92 72.3585V76.2358H271.749L271.78 76.2043Z" fill="#231F20"/>
<path d="M282.354 72.2797C282.354 71.8068 282.448 71.4916 282.62 71.3182C282.807 71.1448 283.151 71.066 283.666 71.066H287.602C288.133 71.066 288.477 71.1448 288.664 71.3182C288.836 71.4916 288.93 71.8068 288.93 72.2797V74.9906C288.93 75.4635 288.836 75.7787 288.664 75.9521C288.477 76.1255 288.133 76.2043 287.618 76.2043H283.682C283.167 76.2043 282.807 76.1255 282.636 75.9521C282.448 75.7787 282.37 75.4635 282.37 74.9906V72.2797H282.354ZM283.588 75.2271H287.68V72.0117H283.588V75.2271Z" fill="#231F20"/>
<path d="M291.068 76.2043V71.066H295.645C296.066 71.066 296.363 71.1448 296.551 71.3024C296.738 71.4601 296.832 71.7122 296.832 72.059V73.2726C296.832 73.6194 296.738 73.8716 296.551 74.0292C296.363 74.1868 296.066 74.2656 295.645 74.2656H294.942L297.363 76.2043H295.582L293.442 74.2656H292.271V76.2043H291.053H291.068ZM295.129 71.9487H292.302V73.3672H295.129C295.348 73.3672 295.488 73.3357 295.567 73.2726C295.645 73.2096 295.692 73.0993 295.692 72.9574V72.3585C295.692 72.2008 295.645 72.1063 295.567 72.0432C295.488 71.9802 295.332 71.9487 295.129 71.9487Z" fill="#231F20"/>
<path d="M298.895 76.2043V71.066H304.345V71.9802H300.144V73.0993H302.596V73.9819H300.144V75.2428H304.408V76.2043H298.879H298.895Z" fill="#231F20"/>
<path d="M307.5 74.3286H307.719C307.828 74.3286 307.907 74.3602 307.938 74.4232C307.985 74.4862 308 74.5966 308 74.7699V75.7472C308 75.9363 307.969 76.0624 307.938 76.1097C307.891 76.1727 307.75 76.1885 307.5 76.1885H306.423C306.313 76.1885 306.235 76.157 306.204 76.0939C306.157 76.0309 306.142 75.9048 306.142 75.7314V74.7542C306.142 74.565 306.157 74.4547 306.204 74.3917C306.251 74.3286 306.391 74.3129 306.641 74.3129H307.5V74.3286Z" fill="#231F20"/>
</g>
<defs>
<clipPath id="clip0_265_418">
<rect width="273" height="36.2043" fill="white" transform="translate(35 40)"/>
</clipPath>
</defs>
</svg>
